<mxfile host="app.diagrams.net" modified="2023-09-01T12:13:56.668Z" agent="Mozilla/5.0 (Macintosh; Intel Mac OS X 10_15_7) AppleWebKit/537.36 (KHTML, like Gecko) Chrome/116.0.0.0 Safari/537.36" version="21.7.1" etag="67Jq_bfU9X_d_-XfSAyB" type="github">
  <diagram name="Page-1" id="Qio2maVmgyqUZSUuPkaj">
    <mxGraphModel>
      <root>
        <mxCell id="0" />
        <mxCell id="1" parent="0" />
      </root>
    </mxGraphModel>
  </diagram>
</mxfile>
